<svg xmlns="http://www.w3.org/2000/svg" xmlns:xlink="http://www.w3.org/1999/xlink" width="500" zoomAndPan="magnify" viewBox="0 0 375 374.999991" height="500" preserveAspectRatio="xMidYMid meet" version="1.0"><defs><g/></defs><path fill="#000000" d="M 156.636719 175.847656 L 134.675781 176.550781 C 134.675781 176.550781 138.550781 171.964844 143.847656 171.035156 C 150.398438 169.886719 155.429688 172.136719 156.636719 175.847656 Z M 77.691406 186.488281 C 79.121094 185.617188 74.351562 183.945312 73.335938 183.566406 C 72.574219 183.277344 73.019531 182.300781 73.535156 182.300781 C 74.023438 182.300781 83.285156 182.042969 85.964844 181.699219 C 88.679688 181.351562 91.472656 179.242188 91.472656 179.242188 C 91.472656 179.242188 114.546875 162.261719 128.796875 157.128906 C 141.949219 152.390625 155.09375 151.316406 178.34375 152.371094 C 196.140625 153.179688 211.375 158.53125 211.375 158.53125 C 188.703125 152.929688 169.105469 154.332031 162.480469 155.078125 C 155.855469 155.824219 157.722656 157.6875 158.09375 158.4375 C 158.46875 159.183594 172.839844 178.125 172.839844 178.125 C 172.839844 178.125 194.953125 176.726562 225.84375 176.535156 C 256.726562 176.351562 304.601562 181.761719 304.601562 181.761719 C 306.222656 183.667969 308.117188 185.386719 310.042969 186.898438 C 312.300781 188.804688 315.28125 191.007812 319.808594 193.886719 C 319.898438 193.945312 319.863281 194.082031 319.757812 194.082031 L 277.980469 194.082031 C 276.996094 194.082031 276.019531 193.882812 275.117188 193.492188 C 274.039062 193.027344 273.03125 192.597656 272.132812 192.214844 C 264.605469 189.046875 249.285156 182.265625 241.597656 179.726562 C 241.300781 179.628906 241.011719 179.539062 240.722656 179.449219 C 240.578125 179.40625 240.429688 179.359375 240.292969 179.316406 C 240.285156 179.3125 240.277344 179.3125 240.265625 179.3125 C 237.109375 178.394531 234.269531 178.082031 232.230469 178.613281 C 225.078125 180.472656 231.046875 188.039062 231.046875 188.039062 C 235.835938 194.089844 249.089844 199.5 249.089844 199.5 C 243.304688 199.746094 224.53125 188.039062 212.753906 188.039062 C 222.050781 195.226562 225.644531 208.128906 225.382812 214.492188 C 219.101562 196.019531 207.78125 189.675781 197.328125 189.675781 C 186.875 189.675781 178.726562 193.34375 174 206.410156 C 174.382812 199.757812 177.003906 192.671875 182.4375 188.042969 L 91.75 188.042969 L 91.75 188.058594 L 81.671875 188.058594 C 85.890625 188.058594 91.644531 195.496094 92.636719 201.929688 L 92.78125 204.195312 C 90.960938 196.308594 85.988281 190.644531 80.128906 190.644531 C 75.933594 190.644531 72.191406 193.550781 69.738281 198.089844 C 73.085938 190.523438 76.550781 187.179688 77.691406 186.488281 Z M 103.417969 180.082031 C 113.871094 180.640625 167.242188 178.605469 167.242188 178.605469 C 167.242188 178.605469 156.511719 163.9375 154.644531 161.605469 C 152.777344 159.273438 149.695312 154.792969 141.765625 156.285156 C 133.832031 157.777344 123.101562 161.320312 112.929688 167.296875 C 102.761719 173.273438 92.964844 179.523438 103.417969 180.082031 Z M 121.007812 191.230469 L 172.671875 192.898438 C 172.796875 193.992188 172.933594 195.007812 173.054688 195.84375 C 173.765625 194.210938 174.648438 192.636719 175.703125 191.1875 Z M 121.007812 191.230469 " fill-opacity="1" fill-rule="nonzero"/><g fill="#000000" fill-opacity="1"><g transform="translate(71.053612, 248.216542)"><g><path d="M 0.4375 0 L 8.453125 -34.703125 L 3.765625 -34.703125 L 4.96875 -39.96875 L 20.21875 -39.96875 L 19.015625 -34.703125 L 14.515625 -34.703125 L 6.5 0 Z M 0.4375 0 "/></g></g></g><g fill="#000000" fill-opacity="1"><g transform="translate(88.228813, 248.216542)"><g><path d="M -1.59375 0 L 7.625 -39.96875 L 21.03125 -39.96875 L 19.828125 -34.734375 L 12.5 -34.734375 L 9.828125 -23.09375 L 16.78125 -23.09375 L 15.578125 -17.96875 L 8.625 -17.96875 L 5.6875 -5.25 L 13.28125 -5.25 L 12.078125 0 Z M -1.59375 0 "/></g></g></g><g fill="#000000" fill-opacity="1"><g transform="translate(107.970329, 248.216542)"><g><path d="M -1.59375 0 L 7.625 -39.96875 L 12.390625 -39.96875 L 15.328125 -15.984375 L 17.40625 -26.890625 L 20.4375 -39.96875 L 25.90625 -39.96875 L 16.6875 0 L 12.375 0 L 9.390625 -24.828125 L 7.328125 -14.328125 L 4.015625 0 Z M -1.59375 0 "/></g></g></g><g fill="#000000" fill-opacity="1"><g transform="translate(133.457685, 248.216542)"><g><path d="M 5.8125 0.40625 C 3.289062 0.40625 1.550781 -0.578125 0.59375 -2.546875 C -0.351562 -4.523438 -0.347656 -7.578125 0.609375 -11.703125 L 4.609375 -29.078125 C 5.453125 -32.765625 6.820312 -35.578125 8.71875 -37.515625 C 10.625 -39.453125 13.148438 -40.421875 16.296875 -40.421875 C 20.222656 -40.421875 22.375 -38.960938 22.75 -36.046875 C 22.976562 -34.285156 22.742188 -31.882812 22.046875 -28.84375 L 21.390625 -26 L 15.703125 -26 L 16.65625 -30.1875 C 17.082031 -32.019531 17.1875 -33.304688 16.96875 -34.046875 C 16.757812 -34.785156 16.125 -35.15625 15.0625 -35.15625 C 14 -35.15625 13.144531 -34.710938 12.5 -33.828125 C 11.851562 -32.941406 11.273438 -31.375 10.765625 -29.125 L 6.734375 -11.78125 C 6.128906 -9.164062 5.90625 -7.34375 6.0625 -6.3125 C 6.226562 -5.28125 6.878906 -4.765625 8.015625 -4.765625 C 9.160156 -4.765625 10.097656 -5.316406 10.828125 -6.421875 C 11.566406 -7.523438 12.238281 -9.390625 12.84375 -12.015625 L 14.078125 -17.390625 L 11.015625 -17.390625 L 12.03125 -21.828125 L 20.40625 -21.828125 L 15.390625 0 L 12.671875 0 L 12.640625 -3.921875 C 12.003906 -2.578125 11.054688 -1.519531 9.796875 -0.75 C 8.546875 0.0195312 7.21875 0.40625 5.8125 0.40625 Z M 5.8125 0.40625 "/></g></g></g><g fill="#000000" fill-opacity="1"><g transform="translate(157.377987, 248.216542)"><g><path d="M 6.609375 -11.109375 C 6.054688 -8.765625 5.851562 -7.128906 6 -6.203125 C 6.144531 -5.273438 6.769531 -4.8125 7.875 -4.8125 C 8.976562 -4.8125 9.8125 -5.285156 10.375 -6.234375 C 10.945312 -7.179688 11.5 -8.804688 12.03125 -11.109375 L 16.328125 -29.734375 C 16.765625 -31.617188 16.898438 -33 16.734375 -33.875 C 16.578125 -34.75 15.976562 -35.1875 14.9375 -35.1875 C 13.90625 -35.1875 13.082031 -34.75 12.46875 -33.875 C 11.851562 -33 11.328125 -31.625 10.890625 -29.75 Z M 18.140625 -11.171875 C 17.242188 -7.265625 15.875 -4.347656 14.03125 -2.421875 C 12.195312 -0.503906 9.742188 0.453125 6.671875 0.453125 C 3.609375 0.453125 1.582031 -0.507812 0.59375 -2.4375 C -0.382812 -4.375 -0.425781 -7.285156 0.46875 -11.171875 L 4.6875 -29.453125 C 6.382812 -36.785156 10.222656 -40.453125 16.203125 -40.453125 C 19.296875 -40.453125 21.300781 -39.519531 22.21875 -37.65625 C 23.144531 -35.789062 23.191406 -33.054688 22.359375 -29.453125 Z M 18.140625 -11.171875 "/></g></g></g><g fill="#000000" fill-opacity="1"><g transform="translate(181.275589, 248.216542)"><g/></g></g><g fill="#000000" fill-opacity="1"><g transform="translate(190.819961, 248.216542)"><g><path d="M -1.59375 0 L 7.625 -39.96875 L 13.71875 -39.96875 L 5.671875 -5.171875 L 13.375 -5.171875 L 12.1875 0 Z M -1.59375 0 "/></g></g></g><g fill="#000000" fill-opacity="1"><g transform="translate(209.312387, 248.216542)"><g><path d="M 18.203125 -10.265625 C 17.359375 -6.585938 16.035156 -3.878906 14.234375 -2.140625 C 12.441406 -0.410156 10.003906 0.453125 6.921875 0.453125 C 3.847656 0.453125 1.8125 -0.414062 0.8125 -2.15625 C -0.175781 -3.894531 -0.253906 -6.597656 0.578125 -10.265625 L 7.46875 -40 L 13.546875 -40 L 6.71875 -10.375 C 6.21875 -8.269531 6.015625 -6.988281 6.109375 -6.53125 C 6.210938 -6.082031 6.359375 -5.671875 6.546875 -5.296875 C 6.734375 -4.929688 7.265625 -4.75 8.140625 -4.75 C 9.023438 -4.75 9.71875 -5.003906 10.21875 -5.515625 C 10.71875 -6.035156 11.09375 -6.675781 11.34375 -7.4375 C 11.601562 -8.195312 11.878906 -9.175781 12.171875 -10.375 L 19 -40 L 25.09375 -40 Z M 18.203125 -10.265625 "/></g></g></g><g fill="#000000" fill-opacity="1"><g transform="translate(233.686905, 248.216542)"><g><path d="M 5.8125 0.40625 C 3.289062 0.40625 1.550781 -0.578125 0.59375 -2.546875 C -0.351562 -4.523438 -0.347656 -7.578125 0.609375 -11.703125 L 4.609375 -29.078125 C 5.453125 -32.765625 6.820312 -35.578125 8.71875 -37.515625 C 10.625 -39.453125 13.148438 -40.421875 16.296875 -40.421875 C 20.222656 -40.421875 22.375 -38.960938 22.75 -36.046875 C 22.976562 -34.285156 22.742188 -31.882812 22.046875 -28.84375 L 21.390625 -26 L 15.703125 -26 L 16.65625 -30.1875 C 17.082031 -32.019531 17.1875 -33.304688 16.96875 -34.046875 C 16.757812 -34.785156 16.125 -35.15625 15.0625 -35.15625 C 14 -35.15625 13.144531 -34.710938 12.5 -33.828125 C 11.851562 -32.941406 11.273438 -31.375 10.765625 -29.125 L 6.734375 -11.78125 C 6.128906 -9.164062 5.90625 -7.34375 6.0625 -6.3125 C 6.226562 -5.28125 6.878906 -4.765625 8.015625 -4.765625 C 9.160156 -4.765625 10.097656 -5.316406 10.828125 -6.421875 C 11.566406 -7.523438 12.238281 -9.390625 12.84375 -12.015625 L 14.078125 -17.390625 L 11.015625 -17.390625 L 12.03125 -21.828125 L 20.40625 -21.828125 L 15.390625 0 L 12.671875 0 L 12.640625 -3.921875 C 12.003906 -2.578125 11.054688 -1.519531 9.796875 -0.75 C 8.546875 0.0195312 7.21875 0.40625 5.8125 0.40625 Z M 5.8125 0.40625 "/></g></g></g><g fill="#000000" fill-opacity="1"><g transform="translate(257.607207, 248.216542)"><g><path d="M 11.890625 -12.015625 L 13.84375 -32.09375 L 13.75 -32.09375 L 6.671875 -12.015625 Z M -3.40625 0 L 11.515625 -39.96875 L 19.546875 -39.96875 L 16.390625 0 L 10.71875 0 L 11.390625 -7.125 L 4.9375 -7.125 L 2.453125 0 Z M -3.40625 0 "/></g></g></g><g fill="#000000" fill-opacity="1"><g transform="translate(280.982461, 248.216542)"><g><path d="M 10.78125 -18.78125 L 8.84375 -18.875 L 4.484375 0 L -1.59375 0 L 7.625 -39.96875 L 17.6875 -39.96875 C 19.78125 -39.96875 21.242188 -39.546875 22.078125 -38.703125 C 22.921875 -37.867188 23.332031 -36.695312 23.3125 -35.1875 C 23.289062 -33.6875 22.992188 -31.71875 22.421875 -29.28125 C 21.847656 -26.851562 21.160156 -25.003906 20.359375 -23.734375 C 19.554688 -22.460938 18.40625 -21.609375 16.90625 -21.171875 C 18.226562 -20.929688 18.972656 -20 19.140625 -18.375 C 19.316406 -16.75 18.816406 -13.375 17.640625 -8.25 C 16.460938 -3.125 15.898438 -0.375 15.953125 0 L 9.875 0 C 9.78125 -0.300781 10.8125 -5.078125 12.96875 -14.328125 C 13.375 -16.097656 13.425781 -17.273438 13.125 -17.859375 C 12.832031 -18.441406 12.050781 -18.75 10.78125 -18.78125 Z M 9.96875 -23.59375 L 12.390625 -23.59375 C 13.160156 -23.59375 13.769531 -23.765625 14.21875 -24.109375 C 14.664062 -24.460938 15.0625 -25.0625 15.40625 -25.90625 C 15.75 -26.757812 16.125 -28.054688 16.53125 -29.796875 L 16.578125 -30.046875 C 17.078125 -32.210938 17.222656 -33.628906 17.015625 -34.296875 C 16.804688 -34.960938 16.046875 -35.296875 14.734375 -35.296875 L 12.671875 -35.296875 Z M 9.96875 -23.59375 "/></g></g></g></svg>